<?xml version="1.0" encoding="utf-8"?>
<!-- Generator: Adobe Illustrator 23.0.5, SVG Export Plug-In . SVG Version: 6.00 Build 0)  -->
<svg version="1.1" id="Layer_1" xmlns="http://www.w3.org/2000/svg" xmlns:xlink="http://www.w3.org/1999/xlink" x="0px" y="0px"
	 width="500px" height="340.49px" viewBox="0 0 500 340.49" style="enable-background:new 0 0 500 340.49;" xml:space="preserve">
<style type="text/css">
	.st0{fill:#FFCE00;}
	.st1{fill:#353334;}
	.st2{fill-rule:evenodd;clip-rule:evenodd;fill:#033544;}
	.st3{fill-rule:evenodd;clip-rule:evenodd;fill:#FFFFFF;}
	.st4{fill-rule:evenodd;clip-rule:evenodd;fill:#0E7979;}
	.st5{fill-rule:evenodd;clip-rule:evenodd;fill:#CB2629;}
	.st6{fill:#033544;}
	.st7{fill-rule:evenodd;clip-rule:evenodd;fill:#E6383A;}
	.st8{fill:#FFFFFF;}
	.st9{fill:#1089FF;}
	.st10{fill-rule:evenodd;clip-rule:evenodd;fill:#FFCE00;}
	.st11{fill-rule:evenodd;clip-rule:evenodd;fill:#1A1A1A;}
	.st12{fill:url(#SVGID_1_);}
	.st13{fill:#06103A;}
</style>
<path d="M496.81,121.28c4.25-4.32,4.25-11.25,0-15.57L396.06,3.31C393.97,1.19,391.12,0,388.14,0H188.61
	c-9.92,0-14.86,12.01-7.81,18.99l87.54,86.62c4.39,4.34,4.39,11.44,0,15.78c0,0-63.13,62.48-88.66,87.76
	c-6.75,6.68-15.86,10.43-25.36,10.43l-142.59,0C5.25,219.58,0,224.83,0,231.31v97.45c0,6.48,5.25,11.73,11.73,11.73h157.72
	c6.48,0,11.73-5.25,11.73-11.73v-52.86c0-10.95,13.21-16.47,21-8.76l70.89,70.14c2.08,2.06,4.88,3.21,7.81,3.21h197.09
	c9.85,0,14.82-11.87,7.91-18.88l-85.44-86.83c-4.25-4.32-4.25-11.25,0-15.57L496.81,121.28z"/>
</svg>
