<?xml version="1.0" encoding="utf-8"?>
<!-- Generator: Adobe Illustrator 23.0.5, SVG Export Plug-In . SVG Version: 6.00 Build 0)  -->
<svg version="1.1" id="Layer_1" xmlns="http://www.w3.org/2000/svg" xmlns:xlink="http://www.w3.org/1999/xlink" x="0px" y="0px"
	 width="112px" height="25.62px" viewBox="0 0 112 25.62" style="enable-background:new 0 0 112 25.62;" xml:space="preserve">
<style type="text/css">
	.st0{fill:#FFCE00;}
	.st1{fill:#353334;}
	.st2{fill-rule:evenodd;clip-rule:evenodd;fill:#033544;}
	.st3{fill-rule:evenodd;clip-rule:evenodd;fill:#FFFFFF;}
	.st4{fill-rule:evenodd;clip-rule:evenodd;fill:#0E7979;}
	.st5{fill-rule:evenodd;clip-rule:evenodd;fill:#CB2629;}
	.st6{fill:#033544;}
	.st7{fill-rule:evenodd;clip-rule:evenodd;fill:#E6383A;}
	.st8{fill:#FFFFFF;}
	.st9{fill:#1089FF;}
	.st10{fill-rule:evenodd;clip-rule:evenodd;fill:#FFCE00;}
	.st11{fill-rule:evenodd;clip-rule:evenodd;fill:#1A1A1A;}
	.st12{fill:url(#SVGID_1_);}
	.st13{fill:#06103A;}
</style>
<g>
	<g>
		<g>
			<path class="st0" d="M11.51,8.38l0.54-2.78c0.11-0.55-0.31-1.06-0.87-1.06H8.2c-0.42,0-0.79,0.3-0.87,0.72L6.78,8.04
				C6.68,8.58,7.1,9.09,7.65,9.09h2.98C11.06,9.09,11.42,8.79,11.51,8.38z"/>
			<path class="st0" d="M5.83,12.92l0.54-2.78C6.48,9.6,6.06,9.09,5.5,9.09H2.52c-0.42,0-0.79,0.3-0.87,0.72l-0.54,2.78
				C1,13.13,1.42,13.64,1.97,13.64h2.98C5.38,13.64,5.75,13.34,5.83,12.92z"/>
			<path class="st0" d="M17.18,3.83l0.54-2.78C17.83,0.51,17.42,0,16.86,0h-2.98c-0.42,0-0.79,0.3-0.87,0.72l-0.54,2.78
				c-0.11,0.55,0.31,1.06,0.87,1.06h2.98C16.74,4.55,17.1,4.25,17.18,3.83z"/>
			<path class="st0" d="M7.62,3.83l0.54-2.78C8.27,0.51,7.86,0,7.3,0H4.31C3.89,0,3.53,0.3,3.45,0.72L2.9,3.49
				C2.8,4.04,3.21,4.55,3.77,4.55h2.98C7.18,4.55,7.54,4.25,7.62,3.83z"/>
			<g>
				<path class="st0" d="M22.57,0.72l-0.61,3.12c-0.08,0.42-0.45,0.72-0.87,0.72h-4.06l0,0l-0.75,3.83
					c-0.08,0.42-0.45,0.72-0.87,0.72h-4.06l0,0l-0.75,3.83c-0.08,0.42-0.45,0.72-0.87,0.72H5.68h0l-0.68,3.49
					c-0.11,0.55,0.31,1.06,0.87,1.06H107.9c0.42,0,0.79-0.3,0.87-0.72l3.21-16.41c0.11-0.55-0.31-1.06-0.87-1.06H23.44
					C23.02,0,22.65,0.3,22.57,0.72z"/>
			</g>
		</g>
	</g>
	<g>
		<g>
			<g>
				<path class="st1" d="M81.68,4.87c-0.75-0.6-1.81-0.89-3.17-0.89h-4.64l-2.07,10.33h3.48l0.52-2.6h0.85l1.47,2.6h3.62l-1.73-3.02
					c0.11-0.04,0.23-0.08,0.33-0.13c0.78-0.36,1.39-0.87,1.82-1.52C82.59,9,82.8,8.24,82.8,7.37C82.8,6.3,82.43,5.47,81.68,4.87z
					 M78.93,6.91c0.23,0.16,0.35,0.43,0.35,0.8c0,0.43-0.13,0.77-0.4,1.01s-0.64,0.36-1.12,0.36h-1.43l0.48-2.42h1.17
					C78.38,6.67,78.7,6.75,78.93,6.91z"/>
				<path class="st1" d="M81.77,14.31l2.07-10.34h3.48l-2.07,10.34H81.77z"/>
				<path class="st1" d="M85.91,14.31l2.07-10.34h4.67c1.09,0,2.03,0.18,2.82,0.53c0.79,0.35,1.39,0.86,1.82,1.51
					c0.42,0.65,0.63,1.43,0.63,2.34c0,0.92-0.16,1.74-0.48,2.47c-0.32,0.73-0.77,1.35-1.34,1.87c-0.58,0.52-1.26,0.92-2.04,1.2
					c-0.79,0.28-1.65,0.41-2.6,0.41H85.91z M89.94,11.6h1.62c0.62,0,1.14-0.14,1.56-0.41c0.42-0.27,0.74-0.63,0.95-1.09
					c0.22-0.46,0.32-0.97,0.32-1.53c0-0.4-0.08-0.74-0.24-1.02c-0.16-0.28-0.4-0.49-0.72-0.63c-0.32-0.15-0.72-0.22-1.19-0.22h-1.33
					L89.94,11.6z"/>
				<polygon class="st1" points="107,6.61 107.53,3.98 99.13,3.98 97.07,14.31 105.66,14.31 106.19,11.68 101.01,11.68 
					101.28,10.33 105.66,10.33 106.16,7.82 101.78,7.82 102.03,6.61 				"/>
			</g>
			<g>
				<g>
					<polygon class="st1" points="68.7,14.31 65.73,9.51 64.78,14.31 					"/>
				</g>
				<g>
					<polygon class="st1" points="70.24,3.98 66.31,3.98 69.28,8.79 					"/>
				</g>
			</g>
		</g>
		<g>
			<path class="st1" d="M35.7,4.87c-0.75-0.6-1.81-0.89-3.17-0.89h-4.64l-2.07,10.33h3.48l0.52-2.6h0.85l1.47,2.6h3.62l-1.73-3.02
				c0.11-0.04,0.23-0.08,0.33-0.13c0.78-0.36,1.39-0.87,1.82-1.52s0.64-1.41,0.64-2.27C36.82,6.3,36.45,5.47,35.7,4.87z M32.95,6.91
				c0.23,0.16,0.35,0.43,0.35,0.8c0,0.43-0.13,0.77-0.4,1.01c-0.27,0.24-0.64,0.36-1.12,0.36h-1.43l0.48-2.42H32
				C32.4,6.67,32.72,6.75,32.95,6.91z"/>
			<path class="st1" d="M39.73,11.69h5.18l-0.53,2.63h-8.59l2.07-10.34h8.4l-0.53,2.63h-4.98L39.73,11.69z M40.28,7.82h4.61
				l-0.5,2.51h-4.61L40.28,7.82z"/>
			<polygon class="st1" points="56.95,3.98 56.95,3.98 53.55,3.98 52.59,8.79 49.63,3.98 46.76,3.98 44.69,14.31 48.09,14.31 
				49.05,9.51 52.02,14.31 54.88,14.31 56.41,6.68 59.3,6.68 57.77,14.31 61.26,14.31 62.78,6.68 62.78,6.68 63.33,3.98 			"/>
		</g>
	</g>
	<g>
		<path class="st0" d="M71.09,25.57c-0.32,0-0.58-0.1-0.78-0.29c-0.2-0.2-0.3-0.44-0.3-0.75c0-0.37,0.12-0.66,0.36-0.88
			c0.24-0.22,0.53-0.33,0.88-0.33c0.33,0,0.59,0.1,0.78,0.29c0.2,0.19,0.29,0.44,0.29,0.75c0,0.24-0.06,0.46-0.17,0.64
			c-0.11,0.18-0.26,0.32-0.45,0.42C71.52,25.52,71.32,25.57,71.09,25.57z"/>
		<path class="st0" d="M75.48,25.62c-0.63,0-1.18-0.12-1.65-0.35c-0.47-0.23-0.84-0.55-1.1-0.96c-0.26-0.41-0.39-0.89-0.39-1.43
			c0-0.54,0.09-1.03,0.28-1.48c0.19-0.45,0.46-0.84,0.8-1.16c0.34-0.33,0.75-0.58,1.22-0.76c0.47-0.18,0.99-0.27,1.56-0.27
			c0.59,0,1.11,0.1,1.57,0.31c0.45,0.21,0.79,0.51,1.01,0.91l-1.49,1.16c-0.13-0.23-0.29-0.4-0.5-0.53
			c-0.2-0.13-0.45-0.19-0.73-0.19c-0.24,0-0.47,0.05-0.67,0.14c-0.2,0.09-0.37,0.22-0.52,0.38c-0.15,0.17-0.26,0.36-0.34,0.59
			c-0.08,0.23-0.12,0.48-0.12,0.75c0,0.24,0.05,0.45,0.16,0.63c0.1,0.18,0.25,0.32,0.44,0.42c0.19,0.1,0.41,0.15,0.66,0.15
			c0.24,0,0.47-0.06,0.7-0.17c0.23-0.11,0.45-0.29,0.66-0.54l1.22,1.16c-0.37,0.45-0.79,0.77-1.25,0.95
			C76.56,25.53,76.04,25.62,75.48,25.62z"/>
		<path class="st0" d="M81.21,25.62c-0.64,0-1.19-0.12-1.65-0.35c-0.46-0.23-0.82-0.56-1.08-0.97c-0.25-0.41-0.38-0.88-0.38-1.42
			c0-0.54,0.09-1.04,0.28-1.48c0.19-0.45,0.46-0.83,0.8-1.16c0.34-0.33,0.75-0.58,1.22-0.76c0.47-0.18,0.99-0.27,1.55-0.27
			c0.64,0,1.19,0.12,1.65,0.35c0.46,0.23,0.82,0.56,1.08,0.97c0.25,0.41,0.38,0.89,0.38,1.42c0,0.54-0.09,1.04-0.28,1.48
			c-0.19,0.45-0.46,0.83-0.8,1.16c-0.34,0.33-0.75,0.58-1.22,0.76C82.28,25.53,81.77,25.62,81.21,25.62z M81.38,23.95
			c0.26,0,0.48-0.05,0.68-0.15c0.2-0.1,0.36-0.24,0.5-0.41c0.14-0.17,0.24-0.37,0.31-0.6c0.07-0.22,0.1-0.46,0.1-0.71
			c0-0.24-0.05-0.45-0.14-0.63c-0.1-0.18-0.23-0.32-0.41-0.42c-0.18-0.1-0.39-0.15-0.64-0.15c-0.25,0-0.48,0.05-0.67,0.15
			c-0.2,0.1-0.37,0.24-0.51,0.41c-0.14,0.17-0.24,0.37-0.31,0.6c-0.07,0.22-0.1,0.46-0.1,0.71c0,0.23,0.05,0.44,0.14,0.62
			c0.1,0.18,0.23,0.32,0.41,0.42C80.92,23.9,81.13,23.95,81.38,23.95z"/>
		<path class="st0" d="M84.57,25.48l1.22-6.12h1.68l1.64,4h-0.89l3.15-4h1.76l-1.21,6.12h-1.88l0.64-3.29l0.3-0.02l-2.12,2.76h-0.91
			l-1.19-2.76l0.35,0.03l-0.66,3.29H84.57z"/>
		<path class="st0" d="M93.26,25.57c-0.32,0-0.58-0.1-0.78-0.29c-0.2-0.2-0.3-0.44-0.3-0.75c0-0.37,0.12-0.66,0.36-0.88
			c0.24-0.22,0.53-0.33,0.88-0.33c0.33,0,0.59,0.1,0.78,0.29c0.2,0.19,0.29,0.44,0.29,0.75c0,0.24-0.06,0.46-0.17,0.64
			c-0.11,0.18-0.26,0.32-0.45,0.42C93.7,25.52,93.49,25.57,93.26,25.57z"/>
		<path class="st0" d="M94.35,25.48l1.22-6.12h3.25c0.73,0,1.28,0.13,1.64,0.38c0.37,0.25,0.55,0.61,0.55,1.08
			c0,0.38-0.11,0.7-0.33,0.96c-0.22,0.26-0.52,0.46-0.9,0.6c-0.38,0.14-0.82,0.21-1.32,0.21l0.26-0.47c0.62,0,1.12,0.12,1.47,0.37
			c0.36,0.25,0.54,0.6,0.54,1.05c0,0.45-0.13,0.82-0.39,1.11c-0.26,0.29-0.61,0.5-1.04,0.64c-0.43,0.14-0.91,0.21-1.43,0.21H94.35z
			 M96.67,24.04h1.33c0.2,0,0.37-0.05,0.5-0.14c0.13-0.09,0.2-0.23,0.2-0.42c0-0.13-0.05-0.23-0.15-0.3c-0.1-0.07-0.22-0.1-0.35-0.1
			h-1.47l0.27-1.36h1.19c0.16,0,0.29-0.02,0.39-0.07c0.1-0.04,0.18-0.1,0.22-0.18c0.05-0.08,0.07-0.17,0.07-0.28
			c0-0.13-0.05-0.22-0.14-0.28c-0.1-0.06-0.23-0.09-0.4-0.09h-1.01L96.67,24.04z"/>
		<path class="st0" d="M100.5,25.48l1.22-6.12h2.76c0.65,0,1.2,0.1,1.67,0.31c0.47,0.21,0.83,0.51,1.08,0.9
			c0.25,0.39,0.38,0.85,0.38,1.39c0,0.54-0.09,1.03-0.28,1.46c-0.19,0.43-0.45,0.8-0.8,1.11c-0.34,0.31-0.74,0.55-1.21,0.71
			c-0.47,0.16-0.98,0.24-1.54,0.24H100.5z M102.88,23.87h0.96c0.37,0,0.67-0.08,0.92-0.24c0.25-0.16,0.44-0.38,0.56-0.65
			c0.13-0.27,0.19-0.57,0.19-0.91c0-0.24-0.05-0.44-0.14-0.6c-0.1-0.16-0.24-0.29-0.43-0.38c-0.19-0.09-0.42-0.13-0.7-0.13h-0.79
			L102.88,23.87z"/>
	</g>
</g>
</svg>
